Coordinates
version=1
nRows=14
nColumns=40
inDegrees=yes

Units are S.I. units (second, meters, Newtons, ...)
Angles are in degrees.

endheader
time	pelvis_tilt	pelvis_list	pelvis_rotation	pelvis_tx	pelvis_ty	pelvis_tz	hip_flexion_r	hip_adduction_r	hip_rotation_r	knee_angle_r	knee_angle_r_beta	ankle_angle_r	subtalar_angle_r	mtp_angle_r	hip_flexion_l	hip_adduction_l	hip_rotation_l	knee_angle_l	knee_angle_l_beta	ankle_angle_l	subtalar_angle_l	mtp_angle_l	lumbar_extension	lumbar_bending	lumbar_rotation	arm_flex_r	arm_add_r	arm_rot_r	elbow_flex_r	pro_sup_r	wrist_flex_r	wrist_dev_r	arm_flex_l	arm_add_l	arm_rot_l	elbow_flex_l	pro_sup_l	wrist_flex_l	wrist_dev_l
      3.81000000	     -6.33762510	     -3.79012283	     -0.03963248	      0.76262504	      0.92381067	      0.44327191	     24.43020839	     -6.37506181	     -7.67325401	     64.37322245	     64.37322245	      3.39411496	    -18.61451494	      6.00243800	     21.13232884	     -3.31579399	     -3.54088271	     25.86042149	     25.86042149	     13.59014492	    -12.15017832	      2.70071286	     -9.89681115	      5.14817912	      1.75597818	     14.76107645	    -13.35242548	     -3.48066518	     63.91709323	     45.10629132	      0.00000000	      0.00000000	      1.26855173	    -11.76676734	     -1.01737065	     45.77795573	     45.40924336	      0.00000000	      0.00000000
      3.82314286	     -6.32529980	     -3.85726472	     -0.24322973	      0.76214272	      0.92460474	      0.44272397	     25.76931526	     -6.33248331	     -7.55162553	     64.34477133	     64.34477133	      3.52589089	    -18.55286094	      6.25896302	     20.37793494	     -3.26630384	     -3.31436076	     25.38972589	     25.38972589	     13.75801042	    -12.72140526	      3.00927387	    -10.00219263	      5.32871790	      1.79626555	     13.42651152	    -13.24946354	     -3.49133065	     59.64429277	     45.26239186	      0.00000000	      0.00000000	      2.75062294	    -12.04711925	     -0.93761348	     46.66918155	     45.48037364	      0.00000000	      0.00000000
      3.83628571	     -6.30932427	     -3.98029166	     -0.42117715	      0.76170342	      0.92529089	      0.44235102	     26.99339500	     -6.20811774	     -7.51625019	     64.08885386	     64.08885386	      3.51971818	    -18.52888307	      6.25854513	     19.69092092	     -3.39351431	     -3.44876231	     25.05805999	     25.05805999	     14.10890938	    -12.62679338	      2.93836613	    -10.22051659	      5.58181633	      1.60340251	     11.45107128	    -13.13052917	     -3.26491250	     58.17855924	     45.29608443	      0.00000000	      0.00000000	      4.04162616	    -12.52806956	     -1.16101690	     47.44751026	     45.52678863	      0.00000000	      0.00000000
      3.84942857	     -6.25105648	     -4.03838555	     -0.79271815	      0.76133866	      0.92605196	      0.44212291	     28.16751366	     -6.00807181	     -7.19962111	     63.68766627	     63.68766627	      3.57044105	    -18.44211424	      6.27133352	     18.81034746	     -3.50482979	     -3.80610827	     24.50153718	     24.50153718	     14.31937863	    -12.40686397	      2.91246100	    -10.42705558	      5.73422193	      2.79777756	      9.47819814	    -13.86776034	     -3.16349334	     54.34471054	     45.42095948	      0.00000000	      0.00000000	      5.88015421	    -12.28425521	     -1.29197990	     49.16845411	     45.58699980	      0.00000000	      0.00000000
      3.86257143	     -6.21515804	     -4.13737379	     -1.06601688	      0.76089387	      0.92677391	      0.44199012	     29.20314869	     -5.78525827	     -7.06021873	     62.88996516	     62.88996516	      3.46703231	    -18.29346961	      6.18304227	     18.08217334	     -3.64422566	     -4.07644513	     24.13169778	     24.13169778	     14.49691198	    -12.29309549	      2.59551891	    -10.52689477	      5.89109610	      1.76790839	     10.69136754	    -12.71101930	     -3.62182689	     45.78980136	     45.75765288	      0.00000000	      0.00000000	      6.26972332	    -13.24722303	     -1.21829205	     51.05876296	     45.68959287	      0.00000000	      0.00000000
      3.87571429	     -6.18957871	     -4.23596780	     -1.38613993	      0.76050911	      0.92740662	      0.44198196	     30.15480730	     -5.48695181	     -6.86768300	     61.77662687	     61.77662687	      3.44490589	    -18.06029285	      6.10755125	     17.29271669	     -3.77176583	     -4.32918388	     23.63574460	     23.63574460	     14.74396090	    -12.18777168	      2.59663705	    -10.74079906	      6.11336788	      2.25114637	      8.85002489	    -12.99193034	     -3.50501552	     43.63361720	     45.82075052	      0.00000000	      0.00000000	      7.67545783	    -13.29007071	     -1.62456823	     52.38779575	     45.76919890	      0.00000000	      0.00000000
      3.88885714	     -6.21595989	     -4.32029217	     -1.70842506	      0.76009040	      0.92792778	      0.44214775	     30.98412494	     -5.19011470	     -6.74992196	     60.18250314	     60.18250314	      3.11742950	    -17.80017359	      5.02704291	     16.60485150	     -3.91646330	     -4.66750556	     23.21588295	     23.21588295	     14.95976837	    -11.98340074	      2.37721563	    -10.81684778	      6.27840270	      1.82826977	      8.96206794	    -12.46648143	     -3.93018798	     37.83607656	     46.05546370	      0.00000000	      0.00000000	      8.31169526	    -13.79546268	     -2.25973628	     54.18721300	     45.92603408	      0.00000000	      0.00000000
      3.90200000	     -6.21248531	     -4.38139428	     -2.06311956	      0.75973549	      0.92846096	      0.44241175	     31.67252644	     -4.85176009	     -6.58393049	     58.24164385	     58.24164385	      3.14051532	    -17.27383677	      4.83694106	     15.82311883	     -4.00476631	     -4.94347443	     22.68662867	     22.68662867	     15.17475558	    -11.93407369	      2.42092870	    -11.02129577	      6.44897386	      2.23178046	      7.23955587	    -12.69770289	     -3.94927273	     36.13584417	     46.10916017	      0.00000000	      0.00000000	      9.59550327	    -13.89012516	     -2.73120105	     55.52527908	     46.00858818	      0.00000000	      0.00000000
      3.91514286	     -6.24556224	     -4.42941406	     -2.42389337	      0.75942280	      0.92885200	      0.44285168	     32.23046488	     -4.51585348	     -6.48981963	     55.87619175	     55.87619175	      3.15057259	    -16.54983438	      4.32035774	     15.09408678	     -4.10054618	     -5.27510869	     22.19044224	     22.19044224	     15.40011907	    -11.81208427	      2.39314401	    -11.15986722	      6.57647503	      2.55443303	      5.74519683	    -12.83171970	     -4.06340949	     34.03500164	     46.18717060	      0.00000000	      0.00000000	     10.74572414	    -14.02361016	     -3.20594533	     57.03931231	     46.09429933	      0.00000000	      0.00000000
      3.92828571	     -6.47901667	     -4.45879286	     -2.73560094	      0.75899206	      0.92887035	      0.44338384	     32.87025047	     -4.19329161	     -6.50139153	     53.14522456	     53.14522456	      3.26675353	    -15.69853408	      4.29055780	     14.67545699	     -4.17192728	     -5.51359181	     21.83004432	     21.83004432	     15.60418720	    -11.80454081	      2.37748110	    -11.01199863	      6.73064414	      2.23609234	      4.26756338	    -12.78449584	     -4.08831714	     33.04734458	     46.21689774	      0.00000000	      0.00000000	     11.65126318	    -14.63674349	     -3.55801309	     57.78690476	     46.14479724	      0.00000000	      0.00000000
      3.94142857	     -6.40426596	     -4.45802314	     -3.10604855	      0.75892673	      0.92928354	      0.44405056	     32.90604596	     -3.92182733	     -6.61613898	     49.91876545	     49.91876545	      3.31139607	    -14.42108647	      3.18030746	     13.73961827	     -4.21127862	     -5.92247003	     21.20514414	     21.20514414	     15.84014671	    -11.57158323	      2.30240321	    -11.28318296	      6.76746529	      2.91542719	      2.82313107	    -13.02719584	     -4.35811537	     30.54197621	     46.32649694	      0.00000000	      0.00000000	     12.71143888	    -14.38330741	     -4.15768771	     60.19352981	     46.25215054	      0.00000000	      0.00000000
      3.95457143	     -6.56887842	     -4.47757142	     -3.38252972	      0.75879156	      0.92920735	      0.44478059	     32.88071255	     -3.61121258	     -6.90452521	     46.01870227	     46.01870227	      2.03845579	    -13.74919644	     -1.11230669	     13.17459250	     -4.27635730	     -6.19114238	     20.74118094	     20.74118094	     15.95998062	    -11.43602618	      1.92028803	    -11.20066311	      6.85936266	      1.82447287	      3.06868288	    -12.49169152	     -6.08005982	     26.50790634	     46.61726996	      0.00000000	      0.00000000	     12.11675043	    -15.04564849	     -5.95523662	     63.71679793	     46.52259929	      0.00000000	      0.00000000
      3.96771429	     -6.66813422	     -4.47312613	     -3.65177646	      0.75878281	      0.92909171	      0.44569057	     32.75208112	     -3.30562862	     -7.24877967	     42.18499988	     42.18499988	      2.30574411	    -12.06676167	     -1.23294664	     12.53239792	     -4.30752340	     -6.42712751	     20.29136703	     20.29136703	     16.20119303	    -11.34175935	      1.87616045	    -11.19056156	      6.92469098	      2.06730289	      1.35474062	    -12.68731758	     -6.29588651	     25.65136633	     46.65463241	      0.00000000	      0.00000000	     13.21592510	    -15.11944913	     -6.40219117	     64.96107303	     46.59761714	      0.00000000	      0.00000000
      3.98085714	     -6.84652645	     -4.47355016	     -3.85530647	      0.75887704	      0.92871038	      0.44669312	     32.50082031	     -2.96692647	     -7.71082503	     38.08111989	     38.08111989	      2.51022250	    -10.30034892	     -1.19430822	     12.00380566	     -4.35094514	     -6.60910095	     19.89831522	     19.89831522	     16.46174307	    -11.22178198	      1.76458976	    -11.06256675	      7.02282576	      2.07691848	     -0.26811885	    -12.84901279	     -6.50202117	     24.97991820	     46.68488288	      0.00000000	      0.00000000	     14.05438835	    -15.30697009	     -6.78332113	     66.28096939	     46.66229459	      0.00000000	      0.00000000
